<svg xmlns="http://www.w3.org/2000/svg" xmlns:xlink="http://www.w3.org/1999/xlink" width="567" height="542" viewBox="0 0 567 542" fill="none"><g opacity="1" transform="translate(0.18505859375 0)  rotate(0 283.21875 270.96625176280133)"><g opacity="1" transform="translate(16.4375 0)  rotate(0 275 225.5)"><path id="路径" fill-rule="evenodd" style="fill:#C5E0FA" transform="translate(0.5625 147)  rotate(0 193.49824355934356 151.6836176904988)" opacity="0.7" d="M285.72,1C230.15,-6.46 191.37,29.91 150.5,48.57C129.1,58.34 104.64,54.55 81.93,59.28C9.25,74.36 -18.11,169.1 12.15,222.94C38.35,269.57 84.48,293.81 154.72,299.42C224.92,305.04 274.19,311.56 337.07,265.84C399.96,220.15 395.78,125.05 366.41,58.82C366.41,58.82 341.25,8.46 285.72,1Z " /><g opacity="1" transform="translate(10 0)  rotate(0 270 219.5)"><path id="路径"  style="fill:#C4DEFA" transform="translate(0.8898863435242674 200.4891424405032)  rotate(0 92.65837069766485 89.6980997374383)" opacity="1" d="" /><path id="路径备份 12"  style="fill:#FFFFFF" transform="translate(0.8898863435242674 200.4891424405032)  rotate(0 92.65837069766485 89.6980997374383)" opacity="0.8" d="" /><path id="路径" fill-rule="evenodd" style="fill:#C4DEFA" transform="translate(294.4994515411308 7.50374756166093)  rotate(0 51.2401294277244 80.4043762191696)" opacity="1" d="M0.62 155.34L35.24 144.42C51.86 139.18 68.99 133.65 81.94 121.84C93.71 110.89 100.96 95.94 102.29 79.92C103.53 63.6 98.87 47.36 89.16 34.17C86.96 31.16 84.05 28.13 80.41 27.77C77.25 27.47 74 30.48 74.37 33.44C71.93 26.01 69.33 18.55 64.81 12.21C60.02 5.47 52.7 0.11 44.64 0C36.58 -0.1 28.62 6.4 28.7 14.68C28.79 22.59 35.38 28.67 40.74 34.48C53.91 48.76 62.36 68.22 61.56 87.66C60.76 107.08 49.95 126.06 32.96 134.11C26.12 137.35 18.51 138.86 11.87 142.49C6.82 145.27 2.24 149.85 0.62 155.34Z" /><g opacity="0.8" transform="translate(294.25 6.875)  rotate(0 51.5 81)"><path id="路径" fill-rule="evenodd" style="fill:#FFFFFF" transform="translate(0.2494515411312808 0.6287475616607678)  rotate(0 51.24012942772445 80.4043762191696)" opacity="1" d="M80.41 27.77C77.25 27.47 74 30.48 74.37 33.44C71.93 26.01 69.33 18.55 64.81 12.21C60.02 5.47 52.7 0.11 44.64 0C36.58 -0.1 28.62 6.4 28.7 14.68C28.79 22.59 35.38 28.67 40.74 34.48C53.91 48.76 62.36 68.22 61.56 87.66C60.76 107.08 49.95 126.06 32.96 134.11C26.12 137.35 18.51 138.86 11.87 142.49C6.82 145.27 2.24 149.85 0.62 155.34L35.24 144.42C51.86 139.18 68.99 133.65 81.94 121.84C93.71 110.89 100.96 95.94 102.29 79.92C103.53 63.6 98.87 47.36 89.16 34.17C86.96 31.16 84.05 28.13 80.41 27.77Z" /></g><path id="路径"  style="fill:#C4DEFA" transform="translate(280.340186319806 3.061122567075927)  rotate(0 7.377886490606245 7.377782363189915)" opacity="1" d="" /><g opacity="0.8" transform="translate(279.8125 2.9375)  rotate(0 8 7.5)"><path id="路径"  style="fill:#FFFFFF" transform="translate(0.5276863198066016 0.1236225670757145)  rotate(0 7.377886490606245 7.377782363189915)" opacity="1" d="" /></g><path id="路径"  style="fill:#C4DEFA" transform="translate(420.5796858307873 282.6825747722405)  rotate(0 58.94121914552975 77.666647845284)" opacity="1" d="" /><g opacity="0.8" transform="translate(420.125 281.9375)  rotate(0 59.5 78.5)"><path id="路径"  style="fill:#FFFFFF" transform="translate(0.4546858307876391 0.745074772240514)  rotate(0 58.94121914552975 77.66664784528395)" opacity="1" d="" /></g><path id="路径"  style="fill:#C4DEFA" transform="translate(185.1931468235152 0.1208134333714952)  rotate(0 26.696581925965717 32.1602182833142)" opacity="1" d="" /><g opacity="0.8" transform="translate(185 0)  rotate(0 27 32.5)"><path id="路径"  style="fill:#FFFFFF" transform="translate(0.1931468235152352 0.1208134333714952)  rotate(0 26.696581925965717 32.1602182833142)" opacity="1" d="" /></g></g><path id="路径" fill-rule="evenodd" style="fill:#C4DEFA" transform="translate(399.5625 275)  rotate(0 2.155 2.1549999999998404)" opacity="1" d="M3.77,3.55C3.63,2.73 3.71,1.88 4.02,1.1L4.31,0.39L3.55,0.54C2.73,0.68 1.88,0.6 1.1,0.29L0.39,0L0.54,0.76C0.68,1.58 0.6,2.43 0.29,3.21L0,3.92L0.76,3.77C1.58,3.63 2.43,3.71 3.21,4.02L3.92,4.31L3.77,3.55Z " /><path id="路径" fill-rule="evenodd" style="fill:#C4DEFA" transform="translate(475.7937499999998 123.4381250000001)  rotate(0 1.1418750000000555 1.154999999999994)" opacity="1" d="M0.14,1.72L0,2.1L0.39,2.02C0.84,1.95 1.29,1.99 1.71,2.15L2.09,2.31L2.01,1.9C1.92,1.46 1.97,1.01 2.14,0.59L2.28,0.21L1.89,0.29C1.45,0.36 1,0.32 0.58,0.16L0.21,0L0.28,0.41C0.36,0.85 0.31,1.3 0.14,1.72Z " /><path id="路径" fill-rule="evenodd" style="fill:#C4DEFA" transform="translate(163.1168749999997 92.1875)  rotate(0 1.1549999999999745 1.174687499999995)" opacity="1" d="M0.29,0.39C0.36,0.84 0.32,1.29 0.16,1.71L0,2.07L0.41,2.07C0.85,1.99 1.3,2.04 1.72,2.2L2.1,2.35L2.02,1.96C1.95,1.51 1.99,1.06 2.15,0.64L2.31,0.28L1.9,0.28C1.46,0.36 1.01,0.31 0.59,0.14L0.21,0L0.29,0.39Z " /></g><g opacity="1" transform="translate(411 262)  rotate(0 36.5 117)"><path id="路径" fill-rule="evenodd" style="fill:#C4DEFA" transform="translate(-2.557953848736361e-13 1.70530256582424e-13)  rotate(0 36.007257449134414 108.8032168845528)" opacity="1" d="M71.57,37.95C66.35,42 46.35,79.45 44.19,84.8C38.3,99.12 34.66,114.24 33.4,129.65C33.4,118.66 33.48,108.65 33.52,100.9C33.66,75.6 34.09,67.41 34.3,64.89C35.11,63.61 36.06,62.13 36.62,61.32C41.32,54.53 43.13,48.74 47.55,38.6C53.83,24.26 59.23,-1.24 57.65,0.04C51.07,5.4 45.89,16.91 39.07,31.57C32.25,46.24 34.2,54.68 32.85,67.2C32.57,69.66 32.35,78.93 32.19,91.79C30.43,78.08 27.11,69.07 21.06,60.86C13.62,50.77 6.42,43.96 1.14,40.41C-4.14,36.84 10.26,61.63 17.14,72.4C23.27,82.04 28.92,90.55 32.14,98.9C31.97,116.33 31.89,138.4 31.89,158.9C30.31,149.56 27.73,139.49 24.29,131.72C20.15,122.34 13.79,107.98 8.72,103.12C7.51,101.95 14.02,129.87 18.2,137.29C22.38,144.71 25.45,151.74 28.08,155.94C28.69,156.94 30.73,160.7 31.89,162.88C31.89,187.95 32.03,210.08 32.25,217.61L33.33,217.61C33.26,215.67 33.24,202.9 33.27,186.03C35.88,176.87 41.84,166.4 46.76,156.87C52.12,146.54 65.86,118.6 60.62,122.84C55.38,127.13 48.14,134.94 41.52,145.97C37.1,153.3 34.44,160.96 33.27,171.15C33.27,159.64 33.34,147.3 33.38,135.63C34.71,132.63 37.75,125.71 39.93,120.25C47.2,102.04 49.93,97.53 56.46,81.82C65.19,60.82 74.13,35.95 71.57,37.95Z " /><path id="路径" fill-rule="evenodd" style="fill:#C4DEFA" transform="translate(14.73940692152971 202.3264337691054)  rotate(0 18.03999999999999 15.359999999999985)" opacity="1" d="M36.08,0L0,0L2.37,30.72L33.71,30.72L36.08,0Z " /><path id="路径" fill-rule="evenodd" style="fill:#375EE0" transform="translate(11.23940692152971 195.5364337691053)  rotate(0 21.53999999999999 5.185)" opacity="1" d="M43.08,0L0,0L1.16,10.37L41.91,10.37L43.08,0Z " /></g><g opacity="1" transform="translate(152.3528942422172 121.38637525967988)  rotate(0 62.880340909090904 140.93228022668688)"><g opacity="1" transform="translate(0 0)  rotate(0 62.880340909090904 140.93228022668688)"><path id="路径" fill-rule="evenodd" style="fill:#C2DEFA" transform="translate(0 0)  rotate(0 57.18977272727275 135.2589656494104)" opacity="1" d="M110.89,208.03C112.95,206.68 114.25,204.43 114.38,202L114.38,2.49C114.38,0.27 112.82,-0.62 110.89,0.49L98.03,7.9L3.49,62.49C1.43,63.84 0.13,66.09 0,68.52L0,268.03C0,270.25 1.56,271.14 3.49,270.03L98.07,215.41L110.89,208.03Z " /><path id="路径备份 13" fill-rule="evenodd" style="fill:#FFFFFF" transform="translate(10 10.000000000000005)  rotate(0 57.18977272727275 135.2589656494104)" opacity="1" d="M114.38,2.49C114.38,0.27 112.82,-0.62 110.89,0.49L98.03,7.9L3.49,62.49C1.43,63.84 0.13,66.09 0,68.52L0,268.03C0,270.25 1.56,271.14 3.49,270.03L98.07,215.41L110.89,208.03C112.95,206.68 114.25,204.43 114.38,202L114.38,2.49Z " /><path id="形状" fill-rule="evenodd" style="fill:#A4CDFA" transform="translate(8.64710575778281 8.613576486602597)  rotate(0 58.5567880301995 136.6254919833856)" opacity="1" d="M0.01 269.43C0.01 269.43 0.55 272.1 1.7 272.84C2.18 273.11 2.73 273.25 3.28 273.25C3.28 273.25 4.84 273 5.5 272.59L100.72 217.62L112.96 210.54C115.43 208.95 116.97 206.28 117.11 203.35L117.08 3.88C117.08 3.88 116.57 1.15 115.38 0.46C114.17 -0.22 112.69 -0.14 111.57 0.71L99.3 7.79L4.17 62.77C1.69 64.35 0.13 67.03 0.01 69.98L0.01 269.43Z M112.887 2.95588L99.4874 10.7259L5.55744 65.0359C3.92744 66.1359 2.89744 67.9359 2.74744 69.9159L3.09744 270.496C3.48744 270.576 4.21744 270.256 4.21744 270.256L98.2374 215.966L99.3274 215.326L111.547 208.256C113.177 207.156 114.217 205.356 114.367 203.376L114.017 2.71588C113.627 2.63588 112.887 2.95588 112.887 2.95588Z " /><path id="路径" fill-rule="evenodd" style="fill:#C4DEFA" transform="translate(45.40000000000055 55.86468600607258)  rotate(0 21.78977272727272 28.129949390969994)" opacity="1" d="M0,40.73C0,54.65 9.76,60.2 21.79,53.31C33.82,46.41 43.58,29.5 43.58,15.57C43.58,1.64 33.86,-3.97 21.79,2.98C9.76,9.94 0,26.81 0,40.73Z " /><path id="路径" fill-rule="evenodd" style="fill:#C4DEFA" transform="translate(60.12318181818227 68.81915011549745)  rotate(0 7.066590909090885 9.09936098845874)" opacity="1" d="M0,13.21C0,17.66 3.16,19.49 7.07,17.23C11.24,14.51 13.86,9.96 14.13,4.99C14.13,0.54 10.97,-1.29 7.07,0.97C2.89,3.69 0.27,8.23 0,13.21Z " /><path id="路径" fill-rule="evenodd" style="fill:#C4DEFA" transform="translate(53.713636363636404 85.52595409301375)  rotate(0 13.623636363636395 13.298789397686855)" opacity="1" d="M15.63,1.59L11.61,3.9C5.2,7.6 0,16.62 0,24.02L0,26.02C3.71,27.24 8.38,26.58 13.41,23.64C18.98,20.21 23.69,15.54 27.18,10.01L27.25,8.29C27.25,0.89 22.06,-2.12 15.63,1.59Z " /><path id="路径" fill-rule="evenodd" style="fill:#FFFFFF" transform="translate(60.12318181818227 68.81915011549745)  rotate(0 7.066590909090885 9.09936098845874)" opacity="0.7" d="M0,13.21C0,17.66 3.16,19.49 7.07,17.23C11.24,14.51 13.86,9.96 14.13,4.99C14.13,0.54 10.97,-1.29 7.07,0.97C2.89,3.69 0.27,8.23 0,13.21Z " /><path id="路径" fill-rule="evenodd" style="fill:#FFFFFF" transform="translate(53.713636363636404 85.52595409301375)  rotate(0 13.623636363636395 13.298789397686855)" opacity="0.7" d="M15.63,1.59L11.61,3.9C5.2,7.6 0,16.62 0,24.02L0,26.02C3.71,27.24 8.38,26.58 13.41,23.64C18.98,20.21 23.69,15.54 27.18,10.01L27.25,8.29C27.25,0.89 22.06,-2.12 15.63,1.59Z " /><path id="路径" fill-rule="evenodd" style="fill:#C4DEFA" transform="translate(22.71181818181867 123.30622737368726)  rotate(0 16.33897727272727 11.55278332616613)" opacity="1" d="M0,20.52L0,21.45C0,22.93 1.05,23.53 2.32,22.79L30.36,6.61C31.73,5.71 32.59,4.22 32.68,2.58L32.68,1.66C32.68,0.17 31.7,-0.42 30.36,0.32L2.32,16.5C0.95,17.4 0.09,18.89 0,20.52Z " /><path id="路径" fill-rule="evenodd" style="fill:#000000" transform="translate(22.71181818181867 123.30622737368726)  rotate(0 16.33897727272727 11.55278332616613)" opacity="0.1" d="M0,20.52L0,21.45C0,22.93 1.05,23.53 2.32,22.79L30.36,6.61C31.73,5.71 32.59,4.22 32.68,2.58L32.68,1.66C32.68,0.17 31.7,-0.42 30.36,0.32L2.32,16.5C0.95,17.4 0.09,18.89 0,20.52Z " /><path id="路径" fill-rule="evenodd" style="fill:#C4DEFA" transform="translate(22.71181818181867 110.21246683468007)  rotate(0 43.5728409090909 30.93539823471572)" opacity="1" d="M0,51.14L0,61.04C0,61.78 1.17,61.71 1.17,61.71L86,12.74C86.68,12.29 87.1,11.55 87.15,10.73L87.15,0.84C87.15,0.08 86,0.16 86,0.16L1.17,49.13C0.48,49.58 0.04,50.33 0,51.14Z " /><path id="路径" fill-rule="evenodd" style="fill:#FFFFFF" transform="translate(22.71181818181867 110.21246683468007)  rotate(0 43.5728409090909 30.93539823471572)" opacity="0.2" d="M0,51.14L0,61.04C0,61.78 1.17,61.71 1.17,61.71L86,12.74C86.68,12.29 87.1,11.55 87.15,10.73L87.15,0.84C87.15,0.08 86,0.16 86,0.16L1.17,49.13C0.48,49.58 0.04,50.33 0,51.14Z " /><path id="路径" fill-rule="evenodd" style="fill:#C4DEFA" transform="translate(22.71181818181867 167.33068272734727)  rotate(0 16.33897727272727 11.555726910889446)" opacity="1" d="M0,20.52L0,21.45C0,22.94 1.05,23.54 2.32,22.79L30.36,6.6C31.73,5.71 32.59,4.22 32.68,2.58L32.68,1.65C32.68,0.18 31.7,-0.42 30.36,0.31L2.32,16.5C0.95,17.4 0.09,18.89 0,20.52Z " /><path id="路径" fill-rule="evenodd" style="fill:#000000" transform="translate(22.71181818181867 167.33068272734727)  rotate(0 16.33897727272727 11.555726910889446)" opacity="0.1" d="M0,20.52L0,21.45C0,22.94 1.05,23.54 2.32,22.79L30.36,6.6C31.73,5.71 32.59,4.22 32.68,2.58L32.68,1.65C32.68,0.18 31.7,-0.42 30.36,0.31L2.32,16.5C0.95,17.4 0.09,18.89 0,20.52Z " /><path id="路径" fill-rule="evenodd" style="fill:#C4DEFA" transform="translate(22.71181818181867 154.23694072198217)  rotate(0 43.5728409090909 30.93539823471572)" opacity="1" d="M0,51.14L0,61.04C0,61.79 1.17,61.71 1.17,61.71L86,12.74C86.68,12.29 87.1,11.54 87.15,10.73L87.15,0.83C87.15,0.09 86,0.16 86,0.16L1.17,49.13C0.48,49.58 0.04,50.33 0,51.14Z " /><path id="路径" fill-rule="evenodd" style="fill:#FFFFFF" transform="translate(22.71181818181867 154.23694072198217)  rotate(0 43.5728409090909 30.93539823471572)" opacity="0.2" d="M0,51.14L0,61.04C0,61.79 1.17,61.71 1.17,61.71L86,12.74C86.68,12.29 87.1,11.54 87.15,10.73L87.15,0.83C87.15,0.09 86,0.16 86,0.16L1.17,49.13C0.48,49.58 0.04,50.33 0,51.14Z " /><path id="路径" fill-rule="evenodd" style="fill:#C4DEFA" transform="translate(51.3670454545454 192.02193111333148)  rotate(0 19.08784090909096 17.84459054725316)" opacity="1" d="M0,23.67L0,34.03C0,35.51 0.98,36.11 2.32,35.38L35.84,16.04C37.22,15.15 38.09,13.65 38.18,12.02L38.18,1.66C38.18,0.17 37.18,-0.43 35.84,0.32L2.32,19.65C0.95,20.55 0.1,22.03 0,23.67Z " /><path id="路径" fill-rule="evenodd" style="fill:#000000" transform="translate(51.3670454545454 192.02193111333148)  rotate(0 19.08784090909096 17.84459054725316)" opacity="0.1" d="M0,23.67L0,34.03C0,35.51 0.98,36.11 2.32,35.38L35.84,16.04C37.22,15.15 38.09,13.65 38.18,12.02L38.18,1.66C38.18,0.17 37.18,-0.43 35.84,0.32L2.32,19.65C0.95,20.55 0.1,22.03 0,23.67Z " /></g><g opacity="1" transform="translate(95.8061966668738 180.24998837668318)  rotate(0 8.045454545454545 11.96273494106458)"><path id="形状" fill-rule="evenodd" style="fill:#C4DEFA" transform="translate(0 0)  rotate(0 8.045454545454545 11.96273494106458)" opacity="1" d="M0.02 16.08C0.29 22.22 4.16 25.46 8.55 23.21C12.94 20.96 16.35 14 16.07 7.85C15.8 1.7 11.93 -1.53 7.54 0.72C3.15 2.96 -0.26 9.93 0.02 16.08Z M15.0022 8.39702C14.7622 2.99702 11.4622 0.237021 7.61218 2.21702C3.75218 4.18702 0.842185 10.127 1.08218 15.527C1.33218 20.927 4.62218 23.687 8.48218 21.707C12.3322 19.737 15.2422 13.797 15.0022 8.39702Z M9.51608 14.205C9.31608 14.615 9.33608 15.065 9.56608 15.255C9.78608 15.445 10.1061 15.275 10.3061 14.865L12.8661 9.49503L9.91608 7.24503C9.63608 7.08503 9.31608 7.32503 9.11608 7.73503C8.91608 8.14503 8.99608 8.63503 9.21608 8.83503L10.6861 9.84503L3.72608 13.405C3.40608 13.575 3.20608 13.985 3.22608 14.435C3.24608 14.885 3.47608 15.075 3.79608 14.905L10.8661 11.285L9.51608 14.205Z " /></g></g><g opacity="1" transform="translate(35.125 359.25)  rotate(0 44.5 35)"><path id="椭圆形" fill-rule="evenodd" style="fill:#C4DEFA" transform="translate(17.39062500000033 9.14812500000005)  rotate(0 26.17125 26.171249999999986)" opacity="1" d="M52.34,26.17C52.34,11.72 40.62,0 26.17,0C11.72,0 0,11.72 0,26.17C0,40.62 11.72,52.34 26.17,52.34C40.62,52.34 52.34,40.62 52.34,26.17Z " /><g opacity="0.3" transform="translate(31.5 39.0625)  rotate(0 4.5 4.5)"><path id="路径" fill-rule="evenodd" style="fill:#FFFFFF" transform="translate(0.1048949853479826 0.1549797889761066)  rotate(0 4.278812612837873 4.278812612837873)" opacity="1" d="M4.29,0C2.56,-0.01 0.99,1.04 0.33,2.63C-0.34,4.24 0.03,6.08 1.25,7.3C2.48,8.53 4.32,8.89 5.92,8.23C7.52,7.56 8.56,6 8.56,4.27C8.55,1.91 6.64,0.01 4.29,0Z " /></g><g opacity="0.3" transform="translate(28.875 28.5625)  rotate(0 3 3)"><path id="路径" fill-rule="evenodd" style="fill:#FFFFFF" transform="translate(0.2624601823608828 0.1287499999998545)  rotate(0 2.493787299582485 2.4937857187691925)" opacity="1" d="M2.49,0C1.48,0 0.57,0.61 0.19,1.54C-0.2,2.48 0.02,3.55 0.74,4.26C1.45,4.97 2.53,5.18 3.46,4.79C4.39,4.4 4.99,3.49 4.99,2.48C4.98,1.11 3.87,0 2.49,0Z " /></g><path id="路径" fill-rule="evenodd" style="fill:#C4DEFA" transform="translate(0.6157478213174556 0.577054281625351)  rotate(0 43.74906494529907 34.39073298199082)" opacity="1" d="M0.96,67.78C6.77,72.39 31.15,60.57 52,43.76C72.86,26.95 91.84,6.52 86.62,1.11C81.42,-4.29 55.4,11.71 55.4,11.71L58.51,13.7C58.51,13.7 74.26,3.61 79.22,7.52C84.18,11.43 70.03,26.74 50,41.36C29.95,55.98 10.62,66.22 7.64,62.21C4.66,58.21 18.79,44.86 18.79,44.86L17.55,41.11C17.55,41.11 -4.86,63.17 0.96,67.78Z " /><g opacity="0.3" transform="translate(0 0)  rotate(0 44.5 35)"><path id="路径" fill-rule="evenodd" style="fill:#000000" transform="translate(0.6157478213167451 0.5770542816248962)  rotate(0 43.74906494529907 34.390732981990816)" opacity="1" d="M58.51,13.7C58.51,13.7 74.26,3.61 79.22,7.52C84.18,11.43 70.03,26.74 50,41.36C29.95,55.98 10.62,66.22 7.64,62.21C4.66,58.21 18.79,44.86 18.79,44.86L17.55,41.11C17.55,41.11 -4.86,63.17 0.96,67.78C6.77,72.39 31.15,60.57 52,43.76C72.86,26.95 91.84,6.52 86.62,1.11C81.42,-4.29 55.4,11.71 55.4,11.71L58.51,13.7Z " /></g><g opacity="0.3" transform="translate(18.375 16.75)  rotate(0 5.5 18.5)"><path id="路径" fill-rule="evenodd" style="fill:#FFFFFF" transform="translate(0.9407655892109688 0.1096412780862011)  rotate(0 4.919346138796677 18.109710004815224)" opacity="1" d="M5.1,3.96C3.67,5.72 2.52,7.68 1.68,9.78C-0.44,15 -0.56,20.83 1.36,26.13C2.11,28.25 3.18,30.26 4.53,32.07C6.87,35.17 8.88,36.43 9.1,36.19C9.32,35.96 7.62,34.38 5.73,31.27C0.6,23.13 0.81,12.72 6.25,4.8C8.26,1.78 10.03,0.27 9.82,0.02C9.7,-0.16 7.55,0.96 5.1,3.96Z " /></g></g><g opacity="1" transform="translate(375.93708603089794 127.93708603089726)  rotate(0 22 22)"><path id="椭圆形" fill-rule="evenodd" style="fill:#C4DEFA" transform="translate(-1.882938249764265e-13 -1.953992523340276e-13)  rotate(-90 21.590625000000006 21.590625000000014)" opacity="1" d="M43.18,21.59C43.18,9.67 33.51,0 21.59,0C9.67,0 0,9.67 0,21.59C0,33.51 9.67,43.18 21.59,43.18C33.51,43.18 43.18,33.51 43.18,21.59Z " /><g opacity="0.4" transform="translate(28.19944517716885 9.672079647812552)  rotate(0 4 4)"><path id="路径" fill-rule="evenodd" style="fill:#000000" transform="translate(0.4319033901274452 0.2370936355341655)  rotate(0 3.517669128814157 3.517517688428696)" opacity="1" d="M0.97,5.95C1.62,6.63 2.51,7.02 3.44,7.03C5.38,7.08 6.99,5.54 7.03,3.6C7.08,1.65 5.54,0.04 3.6,0C1.65,-0.04 0.05,1.5 0,3.44C-0.02,4.37 0.33,5.28 0.97,5.95Z " /></g><g opacity="0.4" transform="translate(34.76194517716885 18.85957964781255)  rotate(0 3 2.5)"><path id="路径" fill-rule="evenodd" style="fill:#000000" transform="translate(0.9049415745257647 0.6830887934393104)  rotate(0 2.06079720436987 2.0606622046285237)" opacity="1" d="M0.57,3.49C0.94,3.88 1.46,4.11 2.01,4.12C2.84,4.14 3.61,3.66 3.95,2.89C4.28,2.13 4.13,1.24 3.55,0.64C2.97,0.03 2.09,-0.16 1.31,0.14C0.53,0.44 0.02,1.19 0,2.02C-0.01,2.57 0.19,3.09 0.57,3.49Z " /></g><g opacity="0.4" transform="translate(32.13694517716885 27.73457964781255)  rotate(0 1 1)"><path id="路径" fill-rule="evenodd" style="fill:#000000" transform="translate(0.01300159113543486 0.1282850243824214)  rotate(0 0.7549839408990715 0.7549200530373615)" opacity="1" d="M0.23,0.21C0.09,0.34 0,0.53 0,0.74C-0.01,1.15 0.32,1.5 0.74,1.51C1.15,1.51 1.5,1.18 1.51,0.76C1.52,0.56 1.44,0.37 1.3,0.22C1.17,0.08 0.97,0 0.77,0C0.57,-0.01 0.38,0.07 0.23,0.21Z " /></g></g><g opacity="1" transform="translate(106 433)  rotate(-45 43 46)"><path id="路径" fill-rule="evenodd" style="fill:#C4DEFA" transform="translate(3.607899408284453 4.396874999999937)  rotate(0 39.382300295858016 42.479062500000026)" opacity="1" d="M78.61 0.16L78.76 0C78.76 0 78.71 0.04 78.61 0.16ZM77.5 1.27L78.61 0.16C78.54 0.23 78.46 0.34 78.35 0.5L77.5 1.27ZM77.5 1.27L77.21 1.54L72.9 5.59L56.98 20.72C57.69 37.22 58.64 59.54 60.15 84.22L54.47 80.43L18.49 56.41C13.08 40.42 8.46 26.94 5.21 17.42L1.4 6.35C0.96 5.09 0.62 4.12 0.39 3.42L0.07 2.7L0.31 3.45L1.24 6.41C2.11 9.01 3.35 12.76 4.92 17.51C8.14 27.07 12.67 40.61 18.12 56.74L54.14 80.85L59.82 84.65L60.29 84.96L60.29 84.41C59.19 59.54 58.15 37.29 57.32 20.83L73.07 5.66L77.31 1.47L77.5 1.27Z" /><path id="路径" fill-rule="evenodd" style="fill:#C4DEFA" transform="translate(57.93375000000002 81.25687500000029)  rotate(0 5.27625000000001 5.2434375)" opacity="1" d="M1.14,0.92L2.28,4.46L0,7.4L3.71,7.42L5.81,10.49L6.98,6.96L10.55,5.92L7.55,3.71L7.67,0L4.65,2.18L1.14,0.92Z " /><path id="路径" fill-rule="evenodd" style="fill:#C4DEFA" transform="translate(17.54812500000009 56.04374999999968)  rotate(0 3.379687499999985 3.4256249999999966)" opacity="1" d="M0,5.08L2.4,4.95L3.87,6.85L4.49,4.51L6.76,3.71L4.74,2.4L4.66,0L2.8,1.52L0.49,0.84L1.35,3.08L0,5.08Z " /><path id="路径" fill-rule="evenodd" style="fill:#C4DEFA" transform="translate(2.895461648222408e-13 2.323124999999919)  rotate(0 4.1409375000000015 4.20656249999999)" opacity="1" d="M4.87,6.54L7.7,7.35L6.63,4.61L8.28,2.15L5.33,2.34L3.52,0L2.77,2.86L0,3.87L2.48,5.46L2.59,8.41L4.87,6.54Z " /><path id="路径" fill-rule="evenodd" style="fill:#C4DEFA" transform="translate(77.03062500000061 -1.989519660128281e-13)  rotate(0 4.1409375 4.200000000000017)" opacity="1" d="M8.28,2.15L5.34,2.32L3.52,0L2.78,2.85L0,3.86L2.49,5.45L2.59,8.4L4.87,6.52L7.7,7.35L6.63,4.59L8.28,2.15Z " /><path id="路径" fill-rule="evenodd" style="fill:#C4DEFA" transform="translate(58.07812500000015 22.49625000000012)  rotate(0 2.6446874999999963 2.68406250000001)" opacity="1" d="M3.41,1.5L2.26,0L1.77,1.82L0,2.47L1.59,3.49L1.65,5.37L3.11,4.17L4.92,4.7L4.24,2.94L5.29,1.38L3.41,1.5Z " /></g><path id="ill2_7" fill-rule="evenodd" style="fill:#C4DEFA" transform="translate(436.5443750000004 205.2593750000001)  rotate(0 5.66343749999996 5.66343749999996)" opacity="1" d="M9.95,4.74C8.4,3.98 7.1,2.79 6.21,1.31L5.42,0L4.75,1.36C3.99,2.92 2.79,4.21 1.31,5.11L0,5.89L1.38,6.58C2.93,7.34 4.22,8.53 5.11,10.01L5.91,11.33L6.58,9.95C7.34,8.4 8.54,7.11 10.01,6.22L11.33,5.42L9.95,4.74Z " /><g opacity="1" transform="translate(87 67.76470588235316)  rotate(15 32.5 26.38235294117647)"><path id="路径" fill-rule="evenodd" style="fill:#C4DEFA" transform="translate(0.13764705882366002 19.4158823529411)  rotate(0 32.431176470588255 12.124411764705876)" opacity="1" d="M0,11.65L64.86,24.25L59.39,0L0,11.65Z " /><path  id="路径" style="stroke:#263238; stroke-width:1; stroke-opacity:1; stroke-dasharray:0 0" transform="translate(0.13764705882366002 19.4158823529411)  rotate(0 32.431176470588255 12.124411764705876)" d="M0,11.65L64.86,24.25L59.39,0L0,11.65Z " /><path id="路径" fill-rule="evenodd" style="fill:#C4DEFA" transform="translate(41.56941176470616 26.40529411764675)  rotate(0 11.715294117647074 8.62970588235294)" opacity="1" d="M0,12.24L23.43,17.26L17.89,0L0,12.24Z " /><path  id="路径" style="stroke:#263238; stroke-width:1; stroke-opacity:1; stroke-dasharray:0 0" transform="translate(41.56941176470616 26.40529411764675)  rotate(0 11.715294117647074 8.62970588235294)" d="M0,12.24L23.43,17.26L17.89,0L0,12.24Z " /><path id="路径" fill-rule="evenodd" style="fill:#C4DEFA" transform="translate(0.13764705882357475 2.842170943040401e-14)  rotate(0 30.293823529411775 15.53500000000002)" opacity="1" d="M0,31.07L59.39,19.42L60.59,0L0,31.07Z " /><path  id="路径" style="stroke:#263238; stroke-width:1; stroke-opacity:1; stroke-dasharray:0 0" transform="translate(0.13764705882357475 2.842170943040401e-14)  rotate(0 30.293823529411775 15.53500000000002)" d="M0,31.07L59.39,19.42L60.59,0L0,31.07Z " /><path id="路径" fill-rule="evenodd" style="fill:#C4DEFA" transform="translate(0.1376470588233616 26.40529411764675)  rotate(0 29.869411764705884 12.931176470588236)" opacity="1" d="M59.74,25.86L59.32,0L0,4.67L59.74,25.86Z " /><path  id="路径" style="stroke:#263238; stroke-width:1; stroke-opacity:1; stroke-dasharray:0 0" transform="translate(0.1376470588233616 26.40529411764675)  rotate(0 29.869411764705884 12.931176470588236)" d="M59.74,25.86L59.32,0L0,4.67L59.74,25.86Z " /></g><path id="路径" fill-rule="evenodd" style="fill:#C4DEFA" transform="translate(232.23812499999985 398.2624999999998)  rotate(0 5.6634375 5.66343749999993)" opacity="1" d="M6.58,9.95C7.35,8.41 8.54,7.12 10.01,6.22L11.33,5.43L10.01,4.75C8.47,3.98 7.18,2.79 6.29,1.31L5.5,0L4.75,1.38C3.99,2.93 2.79,4.22 1.31,5.11L0,5.89L1.38,6.58C2.92,7.34 4.22,8.54 5.11,10.01L5.89,11.33L6.58,9.95Z " /><path id="路径" fill-rule="evenodd" style="fill:#C4DEFA" transform="translate(159.46000000000004 67.53312499999993)  rotate(0 5.67 5.630625000000045)" opacity="1" d="M6.3,1.31L5.51,0L4.75,1.3C3.98,2.84 2.79,4.14 1.31,5.04L0,5.83L1.38,6.51C2.93,7.27 4.23,8.47 5.12,9.95L5.91,11.26L6.59,9.95C7.35,8.4 8.54,7.1 10.03,6.22L11.34,5.42L10.03,4.74C8.48,3.98 7.19,2.79 6.3,1.31Z " /><path id="路径" fill-rule="evenodd" style="fill:#C4DEFA" transform="translate(496.3000000000002 174.2449999999999)  rotate(0 5.670000000000045 5.637187500000005)" opacity="1" d="M6.22,1.31L5.43,0L4.75,1.35C3.99,2.9 2.8,4.2 1.31,5.08L0,5.88L1.39,6.54C2.94,7.3 4.23,8.49 5.12,9.96L5.92,11.27L6.6,9.96C7.36,8.41 8.55,7.12 10.03,6.22L11.34,5.43L9.96,4.75C8.41,3.99 7.11,2.79 6.22,1.31Z " /><path id="路径" fill-rule="evenodd" style="fill:#C4DEFA" transform="translate(218.10249999999996 358.83500000000004)  rotate(0 1.154999999999994 1.148437500000057)" opacity="1" d="M2.02,1.9C1.94,1.46 1.99,1.01 2.15,0.59L2.31,0.21L1.9,0.28C1.46,0.37 1,0.32 0.59,0.14L0.21,0L0.29,0.41C0.36,0.85 0.32,1.3 0.16,1.72L0,2.1L0.41,2.02C0.85,1.94 1.3,1.98 1.72,2.15L2.1,2.3L2.02,1.9Z " /><g opacity="1" transform="translate(0 102)  rotate(0 159 148.5)"><path  id="路径" style="stroke:#2F56D8; stroke-width:0.5; stroke-opacity:1; stroke-dasharray:3 3" transform="translate(0.05362089826428473 173.28468054948655)  rotate(0 110.50318955086804 61.72337064782225)" d="M205.87,40.12C158.46,29.68 66.28,1.69 42.76,0.11C-14.76,-3.89 -18.23,97.35 56.95,119.99C115.54,137.63 210.18,82.45 221.01,75.46 " /><path  id="路径" style="stroke:#2F56D8; stroke-width:0.5; stroke-opacity:1; stroke-dasharray:5 3" transform="translate(120.24999999999991 0.2119639103316331)  rotate(0 98.82346833423576 123.33655704651575)" d="M0,0.99C0,0.99 27.41,-5.9 101.12,16.65C133.95,26.71 167.68,44.15 185.81,74.52C214.31,122.28 186.62,182.54 152.92,211.15C119.22,239.77 104.16,246.67 104.16,246.67 " /></g></g></svg>